<?xml version="1.0" ?><svg id="Layer_1" style="enable-background:new 0 0 512 512;" version="1.1" viewBox="0 0 512 512" xml:space="preserve" xmlns="http://www.w3.org/2000/svg" xmlns:xlink="http://www.w3.org/1999/xlink"><rect height="98.116" style="fill:#FFFFFF;" transform="matrix(0.7078 -0.7064 0.7064 0.7078 -265.2963 226.2123)" width="14.961" x="133.329" y="384.753"/><rect height="31.878" style="fill:#FFFFFF;" transform="matrix(0.7079 -0.7063 0.7063 0.7079 -230.3216 240.025)" width="60.104" x="144.974" y="382.529"/><g><path d="M120.264,178.296c29.182,0,52.923,23.74,52.923,52.923s-23.74,52.923-52.923,52.923   c-29.175,0-52.915-23.74-52.915-52.923S91.089,178.296,120.264,178.296z" style="fill:#02A437;"/><path d="M53.312,41.327c0-3.073,2.497-5.571,5.571-5.571h117.093c3.066,0,5.563,2.497,5.563,5.571V68.24   c0,2.925-2.279,5.306-5.151,5.521c-0.358-0.069-0.726-0.108-1.103-0.108c-0.445,0-0.877,0.055-1.294,0.149H60.867   c-0.417-0.095-0.848-0.149-1.294-0.149c-0.378,0-0.746,0.039-1.103,0.108c-2.877-0.215-5.157-2.596-5.157-5.521L53.312,41.327   L53.312,41.327z" style="fill:#AAB2BD;"/><path d="M47.273,147.811l16.114-30.179c1.316-2.455,2.013-5.236,2.013-8.031V85.456h104.059v24.145   c0,2.795,0.697,5.577,2.006,8.031l16.121,30.179c2.198,4.119,3.365,8.772,3.365,13.459v3.87H43.899v-3.87   C43.899,156.598,45.067,151.939,47.273,147.811z" style="fill:#FFFFFF;"/><path d="M43.9,344.072v-43.34h147.051v10.788l-8.182-8.198c-2.277-2.305-5.962-2.291-8.246-0.014   l-21.933,21.883c-1.088,1.095-1.708,2.576-1.708,4.126c0,1.537,0.611,3.016,1.701,4.112l19.623,19.664H52.937   C47.956,353.093,43.9,349.053,43.9,344.072z" style="fill:#FBB540;"/><path d="M43.899,176.795h41.676c-17.949,11.483-29.881,31.579-29.881,54.424   c0,25.313,14.639,47.26,35.887,57.845H43.899C43.899,289.066,43.899,176.795,43.899,176.795z" style="fill:#FFFFFF;"/><path d="M184.84,231.22c0-22.844-11.935-42.941-29.886-54.424h35.997v112.271h-42.004   C170.199,278.479,184.84,256.531,184.84,231.22z" style="fill:#FFFFFF;"/><circle cx="120.268" cy="231.464" r="11.916" style="fill:#F9D56F;"/><path d="M82.153,230.139c3.474,1.128,7.109,0.349,9.777-1.758l8.181,2.658c-0.003,0.142-0.022,0.278-0.022,0.421   c0,4.578,1.549,8.792,4.128,12.183l-5.064,6.971c-3.395-0.136-6.794,1.369-8.942,4.325c-3.414,4.699-2.373,11.277,2.327,14.692   c4.699,3.414,11.277,2.373,14.692-2.327c2.146-2.955,2.529-6.651,1.351-9.837l5.058-6.963c2.079,0.726,4.303,1.141,6.626,1.141   c2.326,0,4.551-0.416,6.632-1.143l5.058,6.963c-1.179,3.187-0.796,6.885,1.351,9.839c3.414,4.699,9.992,5.741,14.692,2.327   c4.699-3.414,5.741-9.992,2.327-14.691c-2.147-2.955-5.544-4.461-8.94-4.326l-5.067-6.975c2.576-3.39,4.124-7.601,4.124-12.177   c0-0.141-0.019-0.278-0.022-0.418l8.186-2.66c2.667,2.106,6.301,2.885,9.776,1.757c5.524-1.795,8.547-7.729,6.754-13.253   c-1.794-5.524-7.729-8.547-13.253-6.754c-3.474,1.128-5.957,3.895-6.876,7.166l-8.186,2.66c-2.569-3.688-6.331-6.479-10.728-7.809   v-8.589c2.828-1.885,4.694-5.102,4.694-8.756c0-5.809-4.709-10.518-10.518-10.518s-10.518,4.709-10.518,10.518   c0,3.652,1.862,6.867,4.688,8.752v8.592c-4.397,1.329-8.158,4.121-10.727,7.806l-8.183-2.659c-0.92-3.271-3.402-6.037-6.876-7.165   c-5.524-1.795-11.458,1.229-13.253,6.754C73.603,222.409,76.628,228.344,82.153,230.139z M120.264,222.938   c4.696,0,8.523,3.827,8.523,8.523c0,4.702-3.827,8.53-8.523,8.53s-8.523-3.827-8.523-8.53   C111.741,226.765,115.57,222.938,120.264,222.938z"/><polygon points="57.839,112.575 175.026,112.575 196.344,153.783 198.252,170.572 38.761,170.572    38.761,153.783  " style="fill:#FBB540;"/><path d="M245.347,409.892l-80.391-80.561l13.681-13.659l10.415,10.438c0.01,0.01,0.017,0.024,0.028,0.034   l29.602,29.659l40.344,40.43L245.347,409.892z" style="fill:#FFFFFF;"/><path d="M252.717,373.41l-51.273-51.379l22.847-22.794l8.741,8.766c1.139,1.139,2.633,1.722,4.126,1.722   c1.487,0,2.981-0.568,4.112-1.708c2.284-2.277,2.291-5.962,0.014-8.239l-8.746-8.77l14.959-14.927l8.747,8.758   c1.139,1.152,2.633,1.721,4.126,1.721c1.487,0,2.981-0.568,4.119-1.708c2.277-2.277,2.277-5.962,0.008-8.239l-8.748-8.767   l14.957-14.924l8.751,8.766c1.139,1.138,2.633,1.708,4.126,1.708s2.974-0.568,4.112-1.701c2.277-2.277,2.291-5.969,0.014-8.246   l-8.749-8.763l14.956-14.923l8.747,8.762c1.139,1.138,2.633,1.708,4.126,1.708c1.494,0,2.974-0.568,4.112-1.701   c2.277-2.277,2.291-5.969,0.014-8.246l-8.745-8.76l14.965-14.931l8.734,8.758c1.138,1.145,2.633,1.715,4.126,1.715   c1.494,0,2.974-0.562,4.112-1.701c2.277-2.269,2.291-5.962,0.014-8.239l-8.739-8.763l22.839-22.789l42.29,42.385   c0.01,0.01,0.015,0.022,0.025,0.031c0.01,0.01,0.021,0.015,0.03,0.025l8.919,8.939L252.717,373.41z" style="fill:#FFFFFF;"/><polygon points="394.681,205.632 369.54,180.431 390.753,159.259 415.908,184.457  " style="fill:#FBB540;"/><polygon points="266.169,245.484 300.464,336.549 407.6,227.963 346.042,167.646  " style="fill:#FBB540;"/><path d="M479.753,88.801c-0.784,0.422-60.343,61.206-70.95,72.036l-13.909-13.936c-2.277-2.277-5.962-2.269-8.239-0.008   l-25.343,25.288l-8.947-8.968c-1.095-1.088-2.576-1.708-4.126-1.708c-1.537,0-3.031,0.612-4.112,1.701L243.392,263.714   c-0.001,0.001-0.002,0.001-0.003,0.002c-0.001,0.001-0.001,0.002-0.002,0.003l-40.784,40.692v-9.513V170.969v-9.697   c0-6.602-1.637-13.155-4.738-18.952l-16.121-30.179c-0.412-0.776-0.633-1.658-0.633-2.54V84.673   c6.994-2.189,12.08-8.724,12.08-16.433V41.327c0-9.498-7.719-17.223-17.217-17.223H58.883c-9.498,0-17.223,7.727-17.223,17.223   V68.24c0,7.709,5.091,14.246,12.087,16.435v24.928c0,0.883-0.22,1.764-0.64,2.54l-16.121,30.179   c-3.103,5.819-4.74,12.371-4.74,18.951v9.697V294.9v49.174c0,11.41,9.277,20.689,20.689,20.689h116.797l-35.48,35.4l-18.671-18.71   c-1.095-1.095-2.576-1.708-4.119-1.722h-0.008c-1.544,0-3.023,0.612-4.119,1.708l-18.831,18.796   c-2.277,2.277-2.277,5.962-0.008,8.239l77.538,77.701c1.095,1.095,2.576,1.708,4.119,1.721h0.008c1.544,0,3.023-0.611,4.119-1.708   l18.831-18.796c2.277-2.277,2.277-5.962,0.008-8.239l-19.877-19.918l42.553-42.458l25.415,25.468   c1.139,1.152,2.633,1.721,4.126,1.721c1.487,0,2.981-0.568,4.119-1.708l21.933-21.883c1.088-1.095,1.708-2.576,1.708-4.126   c0-1.537-0.611-3.016-1.701-4.112l-10.45-10.472l150.893-150.574c2.277-2.277,2.291-5.962,0.014-8.246l-8.945-8.966l25.351-25.289   c1.095-1.095,1.708-2.576,1.721-4.119c0-1.544-0.611-3.031-1.708-4.126l-12.482-12.505l58.886-61.582L479.753,88.801z    M170.17,473.821l-69.307-69.449l10.586-10.572l69.307,69.449L170.17,473.821z M43.899,176.795h41.676   c-17.949,11.483-29.881,31.579-29.881,54.424c0,25.313,14.639,47.26,35.887,57.845H43.899   C43.899,289.066,43.899,176.795,43.899,176.795z M120.264,178.296c29.182,0,52.923,23.74,52.923,52.923   s-23.74,52.923-52.923,52.923c-29.175,0-52.915-23.74-52.915-52.923S91.089,178.296,120.264,178.296z M184.84,231.22   c0-22.844-11.935-42.941-29.886-54.424h35.997v112.271h-42.004C170.199,278.479,184.84,256.531,184.84,231.22z M53.312,41.327   c0-3.073,2.497-5.571,5.571-5.571h117.093c3.066,0,5.563,2.497,5.563,5.571V68.24c0,2.925-2.279,5.306-5.151,5.521   c-0.358-0.069-0.726-0.108-1.103-0.108c-0.445,0-0.877,0.055-1.294,0.149H60.867c-0.417-0.095-0.848-0.149-1.294-0.149   c-0.378,0-0.746,0.039-1.103,0.108c-2.877-0.215-5.157-2.596-5.157-5.521L53.312,41.327L53.312,41.327z M47.273,147.811   l16.114-30.179c1.316-2.455,2.013-5.236,2.013-8.031V85.456h104.059v24.145c0,2.795,0.697,5.577,2.006,8.031l16.121,30.179   c2.198,4.119,3.365,8.772,3.365,13.459v3.87H43.899v-3.87C43.899,156.598,45.067,151.939,47.273,147.811z M43.899,344.072v-43.34   h147.051v10.788l-8.182-8.198c-2.277-2.305-5.962-2.291-8.246-0.014l-21.933,21.883c-1.088,1.095-1.708,2.576-1.708,4.126   c0,1.537,0.611,3.016,1.701,4.112l19.623,19.664H52.936C47.956,353.093,43.899,349.053,43.899,344.072z M165.013,430.98   l-22.516-22.566l42.543-42.458l22.516,22.566L165.013,430.98z M245.347,409.892l-80.391-80.561l13.681-13.659l10.415,10.438   c0.01,0.01,0.017,0.024,0.028,0.034l29.602,29.659l40.344,40.43L245.347,409.892z M252.717,373.41l-51.273-51.379l22.847-22.794   l8.741,8.766c1.139,1.139,2.633,1.722,4.126,1.722c1.487,0,2.981-0.568,4.112-1.708c2.284-2.277,2.291-5.962,0.014-8.239   l-8.746-8.77l14.959-14.927l8.747,8.758c1.139,1.152,2.633,1.721,4.126,1.721c1.487,0,2.981-0.568,4.119-1.708   c2.277-2.277,2.277-5.962,0.008-8.239l-8.748-8.767l14.957-14.924l8.751,8.766c1.139,1.138,2.633,1.708,4.126,1.708   s2.974-0.568,4.112-1.701c2.277-2.277,2.291-5.969,0.014-8.246l-8.749-8.763l14.956-14.923l8.747,8.762   c1.139,1.138,2.633,1.708,4.126,1.708c1.494,0,2.974-0.568,4.112-1.701c2.277-2.277,2.291-5.969,0.014-8.246l-8.745-8.76   l14.965-14.931l8.734,8.758c1.138,1.145,2.633,1.715,4.126,1.715c1.494,0,2.974-0.562,4.112-1.701   c2.277-2.269,2.291-5.962,0.014-8.239l-8.739-8.763l22.839-22.789l42.29,42.385c0.01,0.01,0.015,0.022,0.025,0.031   c0.01,0.01,0.021,0.015,0.03,0.025l8.919,8.939L252.717,373.41z M394.681,205.632l-25.141-25.201l21.213-21.172l25.156,25.198   L394.681,205.632z"/></g></svg>