<?xml version="1.0" ?><svg id="Layer_1" style="enable-background:new 0 0 512 512;" version="1.1" viewBox="0 0 512 512" xml:space="preserve" xmlns="http://www.w3.org/2000/svg" xmlns:xlink="http://www.w3.org/1999/xlink"><g><path d="M491,80.399c-0.823,0.443-63.376,64.283-74.516,75.657l-14.608-14.636c-2.391-2.391-6.262-2.383-8.653-0.008   l-26.617,26.559l-9.397-9.419c-1.15-1.143-2.705-1.794-4.333-1.794c-1.614,0-3.183,0.643-4.319,1.786l-105.799,105.56   c-0.001,0.001-0.002,0.001-0.003,0.002s-0.001,0.002-0.002,0.003l-42.834,42.737v-9.991V166.697v-10.184   c0-6.934-1.719-13.816-4.976-19.905l-16.931-31.696c-0.433-0.815-0.665-1.741-0.665-2.668V76.063   c7.346-2.299,12.687-9.163,12.687-17.259V30.538c0-9.975-8.107-18.089-18.082-18.089H48.975c-9.975,0-18.089,8.115-18.089,18.089   v28.266c0,8.096,5.347,14.962,12.695,17.261v26.181c0,0.927-0.231,1.853-0.672,2.668l-16.931,31.696   C22.719,142.721,21,149.603,21,156.514v10.184v130.159v51.646c0,11.984,9.743,21.729,21.729,21.729h122.668l-37.263,37.179   l-19.609-19.65c-1.15-1.15-2.705-1.794-4.326-1.809h-0.008c-1.622,0-3.175,0.643-4.326,1.794l-19.778,19.741   c-2.391,2.391-2.391,6.262-0.008,8.653l81.436,81.607c1.15,1.15,2.705,1.794,4.326,1.808h0.008c1.622,0,3.175-0.642,4.326-1.794   l19.778-19.741c2.391-2.391,2.391-6.262,0.008-8.653l-20.876-20.919l44.692-44.592l26.693,26.748   c1.196,1.21,2.765,1.808,4.333,1.808c1.562,0,3.131-0.597,4.326-1.794l23.035-22.983c1.143-1.15,1.794-2.705,1.794-4.333   c0-1.614-0.642-3.168-1.786-4.319l-10.975-10.998l158.478-158.143c2.391-2.391,2.406-6.262,0.015-8.66l-9.395-9.417l26.625-26.56   c1.15-1.15,1.794-2.705,1.808-4.326c0-1.622-0.642-3.183-1.794-4.333l-13.109-13.134l61.846-64.677L491,80.399z M165.856,484.772   l-72.791-72.94l11.118-11.103l72.791,72.94L165.856,484.772z M33.238,172.816h43.771c-18.851,12.06-31.383,33.166-31.383,57.16   c0,26.585,15.375,49.636,37.691,60.753H33.238C33.238,290.73,33.238,172.816,33.238,172.816z M113.441,174.392   c30.649,0,55.583,24.933,55.583,55.583s-24.933,55.583-55.583,55.583c-30.642,0-55.575-24.933-55.575-55.583   S82.8,174.392,113.441,174.392z M181.263,229.976c0-23.992-12.535-45.1-31.388-57.16h37.806V290.73h-44.115   C165.886,279.611,181.263,256.56,181.263,229.976z M43.124,30.538c0-3.227,2.622-5.851,5.851-5.851h122.979   c3.22,0,5.843,2.622,5.843,5.851v28.266c0,3.072-2.394,5.573-5.41,5.799c-0.376-0.072-0.762-0.113-1.158-0.113   c-0.467,0-0.921,0.058-1.359,0.156H51.058c-0.438-0.1-0.891-0.156-1.359-0.156c-0.397,0-0.783,0.041-1.158,0.113   c-3.022-0.226-5.416-2.727-5.416-5.799V30.538H43.124z M36.781,142.375l16.924-31.696c1.382-2.578,2.114-5.499,2.114-8.435V76.886   h109.29v25.359c0,2.936,0.732,5.857,2.107,8.435l16.931,31.696c2.308,4.326,3.534,9.213,3.534,14.136v4.065H33.238v-4.065   C33.238,151.604,34.464,146.71,36.781,142.375z M33.238,348.501v-45.518h154.443v11.33l-8.593-8.61   c-2.391-2.421-6.262-2.406-8.66-0.015l-23.035,22.983c-1.143,1.15-1.794,2.705-1.794,4.333c0,1.614,0.642,3.168,1.786,4.319   l20.609,20.652H42.729C37.498,357.975,33.238,353.732,33.238,348.501z M160.439,439.777l-23.648-23.7l44.681-44.592l23.648,23.7   L160.439,439.777z M244.811,417.63l-84.432-84.61l14.369-14.346l10.939,10.963c0.011,0.011,0.018,0.025,0.029,0.036l31.09,31.15   l42.372,42.462L244.811,417.63z M252.552,379.314l-53.85-53.962l23.995-23.94l9.18,9.207c1.196,1.196,2.765,1.809,4.333,1.809   c1.562,0,3.131-0.597,4.319-1.794c2.399-2.391,2.406-6.262,0.015-8.653l-9.186-9.211l15.711-15.677l9.187,9.198   c1.196,1.21,2.765,1.808,4.333,1.808c1.562,0,3.131-0.597,4.326-1.794c2.391-2.391,2.391-6.262,0.008-8.653l-9.188-9.208   l15.709-15.674l9.191,9.207c1.196,1.195,2.765,1.794,4.333,1.794s3.123-0.597,4.319-1.786c2.391-2.391,2.406-6.269,0.015-8.66   l-9.189-9.204l15.708-15.673l9.187,9.202c1.196,1.195,2.765,1.794,4.333,1.794c1.569,0,3.123-0.597,4.319-1.786   c2.391-2.391,2.406-6.269,0.015-8.66l-9.185-9.2l15.717-15.682l9.173,9.198c1.195,1.203,2.765,1.801,4.333,1.801   c1.569,0,3.123-0.59,4.319-1.786c2.391-2.383,2.406-6.262,0.015-8.653l-9.178-9.203l23.987-23.934l44.416,44.515   c0.01,0.01,0.016,0.023,0.026,0.033c0.01,0.01,0.022,0.016,0.031,0.026l9.367,9.388L252.552,379.314z M401.652,203.102   l-26.405-26.468l22.279-22.236l26.42,26.465L401.652,203.102z"/><path d="M73.414,228.841c3.649,1.185,7.466,0.367,10.268-1.846l8.592,2.792c-0.003,0.149-0.023,0.292-0.023,0.442   c0,4.808,1.627,9.234,4.335,12.795l-5.319,7.321c-3.566-0.143-7.136,1.438-9.391,4.542c-3.586,4.935-2.492,11.844,2.444,15.43   c4.935,3.586,11.844,2.492,15.43-2.444c2.254-3.104,2.656-6.985,1.419-10.332l5.312-7.313c2.184,0.763,4.519,1.198,6.959,1.198   c2.443,0,4.78-0.437,6.965-1.2l5.312,7.313c-1.238,3.347-0.836,7.231,1.419,10.334c3.586,4.935,10.494,6.03,15.43,2.444   c4.935-3.586,6.03-10.494,2.444-15.43c-2.255-3.104-5.823-4.685-9.389-4.543l-5.322-7.326c2.706-3.56,4.331-7.983,4.331-12.789   c0-0.148-0.02-0.292-0.023-0.439l8.598-2.794c2.801,2.212,6.618,3.03,10.267,1.845c5.802-1.885,8.977-8.117,7.093-13.919   s-8.117-8.977-13.919-7.093c-3.649,1.185-6.256,4.091-7.222,7.526l-8.597,2.794c-2.698-3.873-6.649-6.805-11.267-8.201v-9.021   c2.97-1.98,4.93-5.358,4.93-9.196c0-6.101-4.946-11.047-11.047-11.047s-11.047,4.946-11.047,11.047   c0,3.836,1.956,7.212,4.924,9.192v9.024c-4.618,1.396-8.568,4.328-11.266,8.198l-8.594-2.793c-0.966-3.435-3.573-6.34-7.222-7.525   c-5.802-1.885-12.034,1.291-13.919,7.093C64.435,220.723,67.612,226.956,73.414,228.841z M113.441,221.278   c4.932,0,8.951,4.019,8.951,8.951c0,4.938-4.019,8.959-8.951,8.959s-8.951-4.019-8.951-8.959   C104.49,225.298,108.511,221.278,113.441,221.278z"/></g></svg>